<svg xmlns="http://www.w3.org/2000/svg" width="1798" height="1019" fill="none" viewBox="0 0 1798 1019"><g clip-path="url(#clip0_718_3517)"><rect width="1798" height="1019" fill="#EDF6FE"/><g opacity=".34"><g opacity=".75"><path fill="#C5EEF9" d="M339.88 1019H0V769.109C32.71 769.449 67.45 787.539 84.44 853.069C121.6 996.399 244.36 863.019 285.5 954.599C294.95 975.629 317.78 999.359 339.88 1019Z"/></g></g><path fill="#8CCBF0" d="M209 954C215.131 954 221.125 952.182 226.223 948.776C231.321 945.369 235.294 940.528 237.64 934.863C239.987 929.199 240.6 922.966 239.404 916.952C238.208 910.939 235.256 905.415 230.92 901.08C226.585 896.744 221.061 893.792 215.048 892.596C209.034 891.4 202.801 892.013 197.137 894.36C191.472 896.706 186.631 900.679 183.224 905.777C179.818 910.875 178 916.869 178 923C178 931.222 181.266 939.107 187.08 944.92C192.893 950.734 200.778 954 209 954V954Z" opacity=".58"/><g opacity=".63"><g opacity=".38"><path fill="#C5EEF9" d="M1798 0V231.8C1665.34 212.542 1670.84 152.051 1651.37 93.667C1638.2 54.16 1583.27 21.02 1539 0H1798Z"/></g></g><path fill="#8CCBF0" d="M1655 108C1658.96 108 1662.82 106.827 1666.11 104.629C1669.4 102.432 1671.96 99.3082 1673.48 95.6537C1674.99 91.9992 1675.39 87.9778 1674.62 84.0982C1673.84 80.2186 1671.94 76.6549 1669.14 73.8579C1666.35 71.0608 1662.78 69.156 1658.9 68.3843C1655.02 67.6126 1651 68.0087 1647.35 69.5224C1643.69 71.0362 1640.57 73.5996 1638.37 76.8886C1636.17 80.1776 1635 84.0444 1635 88C1635 93.3043 1637.11 98.3914 1640.86 102.142C1644.61 105.893 1649.7 108 1655 108Z" opacity=".58"/><path fill="#83CAD6" d="M60 63.5293C60 64.2274 60.2069 64.9099 60.5947 65.4903C60.9825 66.0708 61.5337 66.5231 62.1787 66.7903C62.8236 67.0574 63.5333 67.1271 64.2179 66.991C64.9026 66.8548 65.5315 66.5188 66.0251 66.0252C66.5187 65.5316 66.8548 64.9028 66.991 64.2181C67.1272 63.5334 67.0573 62.8238 66.7902 62.1789C66.5231 61.534 66.0707 60.9824 65.4903 60.5946C64.9099 60.2067 64.2274 60 63.5293 60C62.5933 60 61.6956 60.3715 61.0337 61.0334C60.3718 61.6954 60 62.5932 60 63.5293"/><path fill="#83CAD6" d="M60 88.2357C60 88.9337 60.2069 89.6161 60.5947 90.1965C60.9825 90.7769 61.5337 91.2293 62.1787 91.4964C62.8236 91.7635 63.5333 91.8332 64.2179 91.697C64.9026 91.5608 65.5315 91.2249 66.0251 90.7314C66.5187 90.2378 66.8548 89.609 66.991 88.9244C67.1272 88.2398 67.0573 87.5297 66.7902 86.8848C66.5231 86.2399 66.0707 85.689 65.4903 85.3012C64.9099 84.9134 64.2274 84.7061 63.5293 84.7061C62.5933 84.7061 61.6956 85.0782 61.0337 85.74C60.3718 86.4019 60 87.2997 60 88.2357Z"/><path fill="#83CAD6" d="M60 112.941C60 113.639 60.2069 114.322 60.5947 114.902C60.9825 115.482 61.5337 115.935 62.1787 116.202C62.8236 116.469 63.5333 116.539 64.2179 116.403C64.9026 116.267 65.5315 115.931 66.0251 115.437C66.5187 114.943 66.8548 114.315 66.991 113.63C67.1272 112.945 67.0573 112.236 66.7902 111.591C66.5231 110.946 66.0707 110.394 65.4903 110.007C64.9099 109.619 64.2274 109.412 63.5293 109.412C62.5933 109.412 61.6956 109.784 61.0337 110.446C60.3718 111.108 60 112.005 60 112.941Z"/><path fill="#83CAD6" d="M60 137.647C60 138.345 60.2069 139.027 60.5947 139.608C60.9825 140.188 61.5337 140.64 62.1787 140.908C62.8236 141.175 63.5333 141.244 64.2179 141.108C64.9026 140.972 65.5315 140.636 66.0251 140.142C66.5187 139.649 66.8548 139.02 66.991 138.336C67.1272 137.651 67.0573 136.941 66.7902 136.296C66.5231 135.651 66.0707 135.1 65.4903 134.712C64.9099 134.325 64.2274 134.117 63.5293 134.117C62.5933 134.117 61.6956 134.489 61.0337 135.151C60.3718 135.813 60 136.711 60 137.647"/><path fill="#83CAD6" d="M84.7031 63.5293C84.7031 64.2274 84.9102 64.9099 85.298 65.4903C85.6858 66.0708 86.237 66.5231 86.8819 66.7903C87.5268 67.0574 88.2365 67.1271 88.9211 66.991C89.6057 66.8548 90.2345 66.5188 90.7281 66.0252C91.2217 65.5316 91.5579 64.9028 91.6941 64.2181C91.8303 63.5334 91.7605 62.8238 91.4933 62.1789C91.2262 61.534 90.7737 60.9824 90.1933 60.5946C89.6129 60.2067 88.9306 60 88.2326 60C87.2965 60 86.3988 60.3715 85.737 61.0334C85.0751 61.6954 84.7031 62.5932 84.7031 63.5293"/><path fill="#83CAD6" d="M84.7031 88.2357C84.7031 88.9337 84.9102 89.6161 85.298 90.1965C85.6858 90.7769 86.237 91.2293 86.8819 91.4964C87.5268 91.7635 88.2365 91.8332 88.9211 91.697C89.6057 91.5608 90.2345 91.2249 90.7281 90.7314C91.2217 90.2378 91.5579 89.609 91.6941 88.9244C91.8303 88.2398 91.7605 87.5297 91.4933 86.8848C91.2262 86.2399 90.7737 85.689 90.1933 85.3012C89.6129 84.9134 88.9306 84.7061 88.2326 84.7061C87.2965 84.7061 86.3988 85.0782 85.737 85.74C85.0751 86.4019 84.7031 87.2997 84.7031 88.2357Z"/><path fill="#83CAD6" d="M84.7031 112.941C84.7031 113.639 84.9102 114.322 85.298 114.902C85.6858 115.482 86.237 115.935 86.8819 116.202C87.5268 116.469 88.2365 116.539 88.9211 116.403C89.6057 116.267 90.2345 115.931 90.7281 115.437C91.2217 114.943 91.5579 114.315 91.6941 113.63C91.8303 112.945 91.7605 112.236 91.4933 111.591C91.2262 110.946 90.7737 110.394 90.1933 110.007C89.6129 109.619 88.9306 109.412 88.2326 109.412C87.2965 109.412 86.3988 109.784 85.737 110.446C85.0751 111.108 84.7031 112.005 84.7031 112.941Z"/><path fill="#83CAD6" d="M84.7031 137.647C84.7031 138.345 84.9102 139.027 85.298 139.608C85.6858 140.188 86.237 140.64 86.8819 140.908C87.5268 141.175 88.2365 141.244 88.9211 141.108C89.6057 140.972 90.2345 140.636 90.7281 140.142C91.2217 139.649 91.5579 139.02 91.6941 138.336C91.8303 137.651 91.7605 136.941 91.4933 136.296C91.2262 135.651 90.7737 135.1 90.1933 134.712C89.6129 134.325 88.9306 134.117 88.2326 134.117C87.2965 134.117 86.3988 134.489 85.737 135.151C85.0751 135.813 84.7031 136.711 84.7031 137.647"/><path fill="#83CAD6" d="M109.414 63.5293C109.414 64.2274 109.621 64.9099 110.009 65.4903C110.397 66.0708 110.948 66.5231 111.593 66.7903C112.238 67.0574 112.947 67.1271 113.632 66.991C114.317 66.8548 114.946 66.5188 115.439 66.0252C115.933 65.5316 116.269 64.9028 116.405 64.2181C116.541 63.5334 116.471 62.8238 116.204 62.1789C115.937 61.534 115.485 60.9824 114.904 60.5946C114.324 60.2067 113.641 60 112.943 60C112.007 60 111.11 60.3715 110.448 61.0334C109.786 61.6954 109.414 62.5932 109.414 63.5293"/><path fill="#83CAD6" d="M109.414 88.2357C109.414 88.9337 109.621 89.6161 110.009 90.1965C110.397 90.7769 110.948 91.2293 111.593 91.4964C112.238 91.7635 112.947 91.8332 113.632 91.697C114.317 91.5608 114.946 91.2249 115.439 90.7314C115.933 90.2378 116.269 89.609 116.405 88.9244C116.541 88.2398 116.471 87.5297 116.204 86.8848C115.937 86.2399 115.485 85.689 114.904 85.3012C114.324 84.9134 113.641 84.7061 112.943 84.7061C112.007 84.7061 111.11 85.0782 110.448 85.74C109.786 86.4019 109.414 87.2997 109.414 88.2357Z"/><path fill="#83CAD6" d="M109.414 112.941C109.414 113.639 109.621 114.322 110.009 114.902C110.397 115.482 110.948 115.935 111.593 116.202C112.238 116.469 112.947 116.539 113.632 116.403C114.317 116.267 114.946 115.931 115.439 115.437C115.933 114.943 116.269 114.315 116.405 113.63C116.541 112.945 116.471 112.236 116.204 111.591C115.937 110.946 115.485 110.394 114.904 110.007C114.324 109.619 113.641 109.412 112.943 109.412C112.007 109.412 111.11 109.784 110.448 110.446C109.786 111.108 109.414 112.005 109.414 112.941Z"/><path fill="#83CAD6" d="M109.414 137.647C109.414 138.345 109.621 139.027 110.009 139.608C110.397 140.188 110.948 140.64 111.593 140.908C112.238 141.175 112.947 141.244 113.632 141.108C114.317 140.972 114.946 140.636 115.439 140.142C115.933 139.649 116.269 139.02 116.405 138.336C116.541 137.651 116.471 136.941 116.204 136.296C115.937 135.651 115.485 135.1 114.904 134.712C114.324 134.325 113.641 134.117 112.943 134.117C112.007 134.117 111.11 134.489 110.448 135.151C109.786 135.813 109.414 136.711 109.414 137.647"/><path fill="#83CAD6" d="M134.117 63.5293C134.117 64.2274 134.324 64.9099 134.712 65.4903C135.1 66.0708 135.651 66.5231 136.296 66.7903C136.941 67.0574 137.651 67.1271 138.335 66.991C139.02 66.8548 139.649 66.5188 140.142 66.0252C140.636 65.5316 140.972 64.9028 141.108 64.2181C141.244 63.5334 141.174 62.8238 140.907 62.1789C140.64 61.534 140.188 60.9824 139.607 60.5946C139.027 60.2067 138.345 60 137.647 60C136.711 60 135.813 60.3715 135.151 61.0334C134.489 61.6954 134.117 62.5932 134.117 63.5293"/><path fill="#83CAD6" d="M134.117 88.2357C134.117 88.9337 134.324 89.6161 134.712 90.1965C135.1 90.7769 135.651 91.2293 136.296 91.4964C136.941 91.7635 137.651 91.8332 138.335 91.697C139.02 91.5608 139.649 91.2249 140.142 90.7314C140.636 90.2378 140.972 89.609 141.108 88.9244C141.244 88.2398 141.174 87.5297 140.907 86.8848C140.64 86.2399 140.188 85.689 139.607 85.3012C139.027 84.9134 138.345 84.7061 137.647 84.7061C136.711 84.7061 135.813 85.0782 135.151 85.74C134.489 86.4019 134.117 87.2997 134.117 88.2357Z"/><path fill="#83CAD6" d="M134.117 112.941C134.117 113.639 134.324 114.322 134.712 114.902C135.1 115.482 135.651 115.935 136.296 116.202C136.941 116.469 137.651 116.539 138.335 116.403C139.02 116.267 139.649 115.931 140.142 115.437C140.636 114.943 140.972 114.315 141.108 113.63C141.244 112.945 141.174 112.236 140.907 111.591C140.64 110.946 140.188 110.394 139.607 110.007C139.027 109.619 138.345 109.412 137.647 109.412C136.711 109.412 135.813 109.784 135.151 110.446C134.489 111.108 134.117 112.005 134.117 112.941Z"/><path fill="#83CAD6" d="M134.117 137.647C134.117 138.345 134.324 139.027 134.712 139.608C135.1 140.188 135.651 140.64 136.296 140.908C136.941 141.175 137.651 141.244 138.335 141.108C139.02 140.972 139.649 140.636 140.142 140.142C140.636 139.649 140.972 139.02 141.108 138.336C141.244 137.651 141.174 136.941 140.907 136.296C140.64 135.651 140.188 135.1 139.607 134.712C139.027 134.325 138.345 134.117 137.647 134.117C136.711 134.117 135.813 134.489 135.151 135.151C134.489 135.813 134.117 136.711 134.117 137.647"/><path fill="#83CAD6" d="M158.82 63.5293C158.82 64.2274 159.027 64.9099 159.415 65.4903C159.803 66.0708 160.354 66.5231 160.999 66.7903C161.644 67.0574 162.354 67.1271 163.038 66.991C163.723 66.8548 164.352 66.5188 164.845 66.0252C165.339 65.5316 165.675 64.9028 165.811 64.2181C165.947 63.5334 165.878 62.8238 165.611 62.1789C165.343 61.534 164.891 60.9824 164.311 60.5946C163.73 60.2067 163.048 60 162.35 60C161.414 60 160.516 60.3715 159.854 61.0334C159.192 61.6954 158.82 62.5932 158.82 63.5293"/><path fill="#83CAD6" d="M158.82 88.2357C158.82 88.9337 159.027 89.6161 159.415 90.1965C159.803 90.7769 160.354 91.2293 160.999 91.4964C161.644 91.7635 162.354 91.8332 163.038 91.697C163.723 91.5608 164.352 91.2249 164.845 90.7314C165.339 90.2378 165.675 89.609 165.811 88.9244C165.947 88.2398 165.878 87.5297 165.611 86.8848C165.343 86.2399 164.891 85.689 164.311 85.3012C163.73 84.9134 163.048 84.7061 162.35 84.7061C161.414 84.7061 160.516 85.0782 159.854 85.74C159.192 86.4019 158.82 87.2997 158.82 88.2357Z"/><path fill="#83CAD6" d="M158.82 112.941C158.82 113.639 159.027 114.322 159.415 114.902C159.803 115.482 160.354 115.935 160.999 116.202C161.644 116.469 162.354 116.539 163.038 116.403C163.723 116.267 164.352 115.931 164.845 115.437C165.339 114.943 165.675 114.315 165.811 113.63C165.947 112.945 165.878 112.236 165.611 111.591C165.343 110.946 164.891 110.394 164.311 110.007C163.73 109.619 163.048 109.412 162.35 109.412C161.414 109.412 160.516 109.784 159.854 110.446C159.192 111.108 158.82 112.005 158.82 112.941Z"/><path fill="#83CAD6" d="M158.82 137.647C158.82 138.345 159.027 139.027 159.415 139.608C159.803 140.188 160.354 140.64 160.999 140.908C161.644 141.175 162.354 141.244 163.038 141.108C163.723 140.972 164.352 140.636 164.845 140.142C165.339 139.649 165.675 139.02 165.811 138.336C165.947 137.651 165.878 136.941 165.611 136.296C165.343 135.651 164.891 135.1 164.311 134.712C163.73 134.325 163.048 134.117 162.35 134.117C161.414 134.117 160.516 134.489 159.854 135.151C159.192 135.813 158.82 136.711 158.82 137.647"/><path fill="#83CAD6" d="M183.531 63.5293C183.531 64.2274 183.738 64.9099 184.126 65.4903C184.514 66.0708 185.065 66.5231 185.71 66.7903C186.355 67.0574 187.065 67.1271 187.749 66.991C188.434 66.8548 189.063 66.5188 189.556 66.0252C190.05 65.5316 190.386 64.9028 190.522 64.2181C190.658 63.5334 190.589 62.8238 190.321 62.1789C190.054 61.534 189.602 60.9824 189.022 60.5946C188.441 60.2067 187.759 60 187.061 60C186.125 60 185.227 60.3715 184.565 61.0334C183.903 61.6954 183.531 62.5932 183.531 63.5293"/><path fill="#83CAD6" d="M183.531 88.2357C183.531 88.9337 183.738 89.6161 184.126 90.1965C184.514 90.7769 185.065 91.2293 185.71 91.4964C186.355 91.7635 187.065 91.8332 187.749 91.697C188.434 91.5608 189.063 91.2249 189.556 90.7314C190.05 90.2378 190.386 89.609 190.522 88.9244C190.658 88.2398 190.589 87.5297 190.321 86.8848C190.054 86.2399 189.602 85.689 189.022 85.3012C188.441 84.9134 187.759 84.7061 187.061 84.7061C186.125 84.7061 185.227 85.0782 184.565 85.74C183.903 86.4019 183.531 87.2997 183.531 88.2357Z"/><path fill="#83CAD6" d="M183.531 112.941C183.531 113.639 183.738 114.322 184.126 114.902C184.514 115.482 185.065 115.935 185.71 116.202C186.355 116.469 187.065 116.539 187.749 116.403C188.434 116.267 189.063 115.931 189.556 115.437C190.05 114.943 190.386 114.315 190.522 113.63C190.658 112.945 190.589 112.236 190.321 111.591C190.054 110.946 189.602 110.394 189.022 110.007C188.441 109.619 187.759 109.412 187.061 109.412C186.125 109.412 185.227 109.784 184.565 110.446C183.903 111.108 183.531 112.005 183.531 112.941Z"/><path fill="#83CAD6" d="M183.531 137.647C183.531 138.345 183.738 139.027 184.126 139.608C184.514 140.188 185.065 140.64 185.71 140.908C186.355 141.175 187.065 141.244 187.749 141.108C188.434 140.972 189.063 140.636 189.556 140.142C190.05 139.649 190.386 139.02 190.522 138.336C190.658 137.651 190.589 136.941 190.321 136.296C190.054 135.651 189.602 135.1 189.022 134.712C188.441 134.325 187.759 134.117 187.061 134.117C186.125 134.117 185.227 134.489 184.565 135.151C183.903 135.813 183.531 136.711 183.531 137.647"/><path fill="#83CAD6" d="M208.234 63.5293C208.234 64.2274 208.441 64.9099 208.829 65.4903C209.217 66.0708 209.768 66.5231 210.413 66.7903C211.058 67.0574 211.768 67.1271 212.452 66.991C213.137 66.8548 213.766 66.5188 214.259 66.0252C214.753 65.5316 215.089 64.9028 215.225 64.2181C215.362 63.5334 215.292 62.8238 215.025 62.1789C214.757 61.534 214.305 60.9824 213.725 60.5946C213.144 60.2067 212.462 60 211.764 60C210.828 60 209.93 60.3715 209.268 61.0334C208.606 61.6954 208.234 62.5932 208.234 63.5293"/><path fill="#83CAD6" d="M208.234 88.2357C208.234 88.9337 208.441 89.6161 208.829 90.1965C209.217 90.7769 209.768 91.2293 210.413 91.4964C211.058 91.7635 211.768 91.8332 212.452 91.697C213.137 91.5608 213.766 91.2249 214.259 90.7314C214.753 90.2378 215.089 89.609 215.225 88.9244C215.362 88.2398 215.292 87.5297 215.025 86.8848C214.757 86.2399 214.305 85.689 213.725 85.3012C213.144 84.9134 212.462 84.7061 211.764 84.7061C210.828 84.7061 209.93 85.0782 209.268 85.74C208.606 86.4019 208.234 87.2997 208.234 88.2357"/><path fill="#83CAD6" d="M208.234 112.941C208.234 113.639 208.441 114.322 208.829 114.902C209.217 115.482 209.768 115.935 210.413 116.202C211.058 116.469 211.768 116.539 212.452 116.403C213.137 116.267 213.766 115.931 214.259 115.437C214.753 114.943 215.089 114.315 215.225 113.63C215.362 112.945 215.292 112.236 215.025 111.591C214.757 110.946 214.305 110.394 213.725 110.007C213.144 109.619 212.462 109.412 211.764 109.412C210.828 109.412 209.93 109.784 209.268 110.446C208.606 111.108 208.234 112.005 208.234 112.941"/><path fill="#83CAD6" d="M208.234 137.647C208.234 138.345 208.441 139.027 208.829 139.608C209.217 140.188 209.768 140.64 210.413 140.908C211.058 141.175 211.768 141.244 212.452 141.108C213.137 140.972 213.766 140.636 214.259 140.142C214.753 139.649 215.089 139.02 215.225 138.336C215.362 137.651 215.292 136.941 215.025 136.296C214.757 135.651 214.305 135.1 213.725 134.712C213.144 134.325 212.462 134.117 211.764 134.117C210.828 134.117 209.93 134.489 209.268 135.151C208.606 135.813 208.234 136.711 208.234 137.647"/><path fill="#83CAD6" d="M232.938 63.5293C232.938 64.2274 233.145 64.9099 233.532 65.4903C233.92 66.0708 234.471 66.5231 235.116 66.7903C235.761 67.0574 236.471 67.1271 237.155 66.991C237.84 66.8548 238.469 66.5188 238.963 66.0252C239.456 65.5316 239.792 64.9028 239.928 64.2181C240.065 63.5334 239.995 62.8238 239.728 62.1789C239.461 61.534 239.008 60.9824 238.428 60.5946C237.847 60.2067 237.165 60 236.467 60C235.531 60 234.633 60.3715 233.971 61.0334C233.309 61.6954 232.938 62.5932 232.938 63.5293"/><path fill="#83CAD6" d="M232.938 88.2357C232.938 88.9337 233.145 89.6161 233.532 90.1965C233.92 90.7769 234.471 91.2293 235.116 91.4964C235.761 91.7635 236.471 91.8332 237.155 91.697C237.84 91.5608 238.469 91.2249 238.963 90.7314C239.456 90.2378 239.792 89.609 239.928 88.9244C240.065 88.2398 239.995 87.5297 239.728 86.8848C239.461 86.2399 239.008 85.689 238.428 85.3012C237.847 84.9134 237.165 84.7061 236.467 84.7061C235.531 84.7061 234.633 85.0782 233.971 85.74C233.309 86.4019 232.938 87.2997 232.938 88.2357Z"/><path fill="#83CAD6" d="M232.938 112.941C232.938 113.639 233.145 114.322 233.532 114.902C233.92 115.482 234.471 115.935 235.116 116.202C235.761 116.469 236.471 116.539 237.155 116.403C237.84 116.267 238.469 115.931 238.963 115.437C239.456 114.943 239.792 114.315 239.928 113.63C240.065 112.945 239.995 112.236 239.728 111.591C239.461 110.946 239.008 110.394 238.428 110.007C237.847 109.619 237.165 109.412 236.467 109.412C235.531 109.412 234.633 109.784 233.971 110.446C233.309 111.108 232.938 112.005 232.938 112.941Z"/><path fill="#83CAD6" d="M232.938 137.647C232.938 138.345 233.145 139.027 233.532 139.608C233.92 140.188 234.471 140.64 235.116 140.908C235.761 141.175 236.471 141.244 237.155 141.108C237.84 140.972 238.469 140.636 238.963 140.142C239.456 139.649 239.792 139.02 239.928 138.336C240.065 137.651 239.995 136.941 239.728 136.296C239.461 135.651 239.008 135.1 238.428 134.712C237.847 134.325 237.165 134.117 236.467 134.117C235.531 134.117 234.633 134.489 233.971 135.151C233.309 135.813 232.938 136.711 232.938 137.647"/><path fill="#83CAD6" d="M1558 881.529C1558 882.227 1558.21 882.91 1558.59 883.49C1558.98 884.071 1559.53 884.523 1560.18 884.79C1560.82 885.057 1561.53 885.127 1562.22 884.991C1562.9 884.855 1563.53 884.519 1564.03 884.025C1564.52 883.532 1564.85 882.903 1564.99 882.218C1565.13 881.533 1565.06 880.824 1564.79 880.179C1564.52 879.534 1564.07 878.982 1563.49 878.595C1562.91 878.207 1562.23 878 1561.53 878C1560.59 878 1559.7 878.372 1559.03 879.033C1558.37 879.695 1558 880.593 1558 881.529"/><path fill="#83CAD6" d="M1558 906.236C1558 906.934 1558.21 907.616 1558.59 908.197C1558.98 908.777 1559.53 909.229 1560.18 909.496C1560.82 909.763 1561.53 909.833 1562.22 909.697C1562.9 909.561 1563.53 909.225 1564.03 908.731C1564.52 908.238 1564.85 907.609 1564.99 906.924C1565.13 906.24 1565.06 905.53 1564.79 904.885C1564.52 904.24 1564.07 903.689 1563.49 903.301C1562.91 902.913 1562.23 902.706 1561.53 902.706C1560.59 902.706 1559.7 903.078 1559.03 903.74C1558.37 904.402 1558 905.3 1558 906.236Z"/><path fill="#83CAD6" d="M1558 930.941C1558 931.639 1558.21 932.322 1558.59 932.902C1558.98 933.482 1559.53 933.935 1560.18 934.202C1560.82 934.469 1561.53 934.539 1562.22 934.403C1562.9 934.267 1563.53 933.931 1564.03 933.437C1564.52 932.943 1564.85 932.315 1564.99 931.63C1565.13 930.945 1565.06 930.236 1564.79 929.591C1564.52 928.946 1564.07 928.394 1563.49 928.007C1562.91 927.619 1562.23 927.412 1561.53 927.412C1560.59 927.412 1559.7 927.784 1559.03 928.446C1558.37 929.108 1558 930.005 1558 930.941Z"/><path fill="#83CAD6" d="M1558 955.647C1558 956.345 1558.21 957.027 1558.59 957.608C1558.98 958.188 1559.53 958.64 1560.18 958.908C1560.82 959.175 1561.53 959.244 1562.22 959.108C1562.9 958.972 1563.53 958.636 1564.03 958.142C1564.52 957.649 1564.85 957.02 1564.99 956.336C1565.13 955.651 1565.06 954.941 1564.79 954.296C1564.52 953.651 1564.07 953.1 1563.49 952.712C1562.91 952.325 1562.23 952.117 1561.53 952.117C1560.59 952.117 1559.7 952.489 1559.03 953.151C1558.37 953.813 1558 954.711 1558 955.647"/><path fill="#83CAD6" d="M1582.7 881.529C1582.7 882.227 1582.91 882.91 1583.3 883.49C1583.69 884.071 1584.24 884.523 1584.88 884.79C1585.53 885.057 1586.24 885.127 1586.92 884.991C1587.61 884.855 1588.23 884.519 1588.73 884.025C1589.22 883.532 1589.56 882.903 1589.69 882.218C1589.83 881.533 1589.76 880.824 1589.49 880.179C1589.23 879.534 1588.77 878.982 1588.19 878.595C1587.61 878.207 1586.93 878 1586.23 878C1585.3 878 1584.4 878.372 1583.74 879.033C1583.08 879.695 1582.7 880.593 1582.7 881.529"/><path fill="#83CAD6" d="M1582.7 906.236C1582.7 906.934 1582.91 907.616 1583.3 908.197C1583.69 908.777 1584.24 909.229 1584.88 909.496C1585.53 909.763 1586.24 909.833 1586.92 909.697C1587.61 909.561 1588.23 909.225 1588.73 908.731C1589.22 908.238 1589.56 907.609 1589.69 906.924C1589.83 906.24 1589.76 905.53 1589.49 904.885C1589.23 904.24 1588.77 903.689 1588.19 903.301C1587.61 902.913 1586.93 902.706 1586.23 902.706C1585.3 902.706 1584.4 903.078 1583.74 903.74C1583.08 904.402 1582.7 905.3 1582.7 906.236Z"/><path fill="#83CAD6" d="M1582.7 930.941C1582.7 931.639 1582.91 932.322 1583.3 932.902C1583.69 933.482 1584.24 933.935 1584.88 934.202C1585.53 934.469 1586.24 934.539 1586.92 934.403C1587.61 934.267 1588.23 933.931 1588.73 933.437C1589.22 932.943 1589.56 932.315 1589.69 931.63C1589.83 930.945 1589.76 930.236 1589.49 929.591C1589.23 928.946 1588.77 928.394 1588.19 928.007C1587.61 927.619 1586.93 927.412 1586.23 927.412C1585.3 927.412 1584.4 927.784 1583.74 928.446C1583.08 929.108 1582.7 930.005 1582.7 930.941Z"/><path fill="#83CAD6" d="M1582.7 955.647C1582.7 956.345 1582.91 957.027 1583.3 957.608C1583.69 958.188 1584.24 958.64 1584.88 958.908C1585.53 959.175 1586.24 959.244 1586.92 959.108C1587.61 958.972 1588.23 958.636 1588.73 958.142C1589.22 957.649 1589.56 957.02 1589.69 956.336C1589.83 955.651 1589.76 954.941 1589.49 954.296C1589.23 953.651 1588.77 953.1 1588.19 952.712C1587.61 952.325 1586.93 952.117 1586.23 952.117C1585.3 952.117 1584.4 952.489 1583.74 953.151C1583.08 953.813 1582.7 954.711 1582.7 955.647"/><path fill="#83CAD6" d="M1607.41 881.529C1607.41 882.227 1607.62 882.91 1608.01 883.49C1608.4 884.071 1608.95 884.523 1609.59 884.79C1610.24 885.057 1610.95 885.127 1611.63 884.991C1612.32 884.855 1612.95 884.519 1613.44 884.025C1613.93 883.532 1614.27 882.903 1614.41 882.218C1614.54 881.533 1614.47 880.824 1614.2 880.179C1613.94 879.534 1613.48 878.982 1612.9 878.595C1612.32 878.207 1611.64 878 1610.94 878C1610.01 878 1609.11 878.372 1608.45 879.033C1607.79 879.695 1607.41 880.593 1607.41 881.529"/><path fill="#83CAD6" d="M1607.41 906.236C1607.41 906.934 1607.62 907.616 1608.01 908.197C1608.4 908.777 1608.95 909.229 1609.59 909.496C1610.24 909.763 1610.95 909.833 1611.63 909.697C1612.32 909.561 1612.95 909.225 1613.44 908.731C1613.93 908.238 1614.27 907.609 1614.41 906.924C1614.54 906.24 1614.47 905.53 1614.2 904.885C1613.94 904.24 1613.48 903.689 1612.9 903.301C1612.32 902.913 1611.64 902.706 1610.94 902.706C1610.01 902.706 1609.11 903.078 1608.45 903.74C1607.79 904.402 1607.41 905.3 1607.41 906.236Z"/><path fill="#83CAD6" d="M1607.41 930.941C1607.41 931.639 1607.62 932.322 1608.01 932.902C1608.4 933.482 1608.95 933.935 1609.59 934.202C1610.24 934.469 1610.95 934.539 1611.63 934.403C1612.32 934.267 1612.95 933.931 1613.44 933.437C1613.93 932.943 1614.27 932.315 1614.41 931.63C1614.54 930.945 1614.47 930.236 1614.2 929.591C1613.94 928.946 1613.48 928.394 1612.9 928.007C1612.32 927.619 1611.64 927.412 1610.94 927.412C1610.01 927.412 1609.11 927.784 1608.45 928.446C1607.79 929.108 1607.41 930.005 1607.41 930.941Z"/><path fill="#83CAD6" d="M1607.41 955.647C1607.41 956.345 1607.62 957.027 1608.01 957.608C1608.4 958.188 1608.95 958.64 1609.59 958.908C1610.24 959.175 1610.95 959.244 1611.63 959.108C1612.32 958.972 1612.95 958.636 1613.44 958.142C1613.93 957.649 1614.27 957.02 1614.41 956.336C1614.54 955.651 1614.47 954.941 1614.2 954.296C1613.94 953.651 1613.48 953.1 1612.9 952.712C1612.32 952.325 1611.64 952.117 1610.94 952.117C1610.01 952.117 1609.11 952.489 1608.45 953.151C1607.79 953.813 1607.41 954.711 1607.41 955.647"/><path fill="#83CAD6" d="M1632.12 881.529C1632.12 882.227 1632.32 882.91 1632.71 883.49C1633.1 884.071 1633.65 884.523 1634.3 884.79C1634.94 885.057 1635.65 885.127 1636.34 884.991C1637.02 884.855 1637.65 884.519 1638.14 884.025C1638.64 883.532 1638.97 882.903 1639.11 882.218C1639.24 881.533 1639.17 880.824 1638.91 880.179C1638.64 879.534 1638.19 878.982 1637.61 878.595C1637.03 878.207 1636.34 878 1635.65 878C1634.71 878 1633.81 878.372 1633.15 879.033C1632.49 879.695 1632.12 880.593 1632.12 881.529"/><path fill="#83CAD6" d="M1632.12 906.236C1632.12 906.934 1632.32 907.616 1632.71 908.197C1633.1 908.777 1633.65 909.229 1634.3 909.496C1634.94 909.763 1635.65 909.833 1636.34 909.697C1637.02 909.561 1637.65 909.225 1638.14 908.731C1638.64 908.238 1638.97 907.609 1639.11 906.924C1639.24 906.24 1639.17 905.53 1638.91 904.885C1638.64 904.24 1638.19 903.689 1637.61 903.301C1637.03 902.913 1636.34 902.706 1635.65 902.706C1634.71 902.706 1633.81 903.078 1633.15 903.74C1632.49 904.402 1632.12 905.3 1632.12 906.236Z"/><path fill="#83CAD6" d="M1632.12 930.941C1632.12 931.639 1632.32 932.322 1632.71 932.902C1633.1 933.482 1633.65 933.935 1634.3 934.202C1634.94 934.469 1635.65 934.539 1636.34 934.403C1637.02 934.267 1637.65 933.931 1638.14 933.437C1638.64 932.943 1638.97 932.315 1639.11 931.63C1639.24 930.945 1639.17 930.236 1638.91 929.591C1638.64 928.946 1638.19 928.394 1637.61 928.007C1637.03 927.619 1636.34 927.412 1635.65 927.412C1634.71 927.412 1633.81 927.784 1633.15 928.446C1632.49 929.108 1632.12 930.005 1632.12 930.941Z"/><path fill="#83CAD6" d="M1632.12 955.647C1632.12 956.345 1632.32 957.027 1632.71 957.608C1633.1 958.188 1633.65 958.64 1634.3 958.908C1634.94 959.175 1635.65 959.244 1636.34 959.108C1637.02 958.972 1637.65 958.636 1638.14 958.142C1638.64 957.649 1638.97 957.02 1639.11 956.336C1639.24 955.651 1639.17 954.941 1638.91 954.296C1638.64 953.651 1638.19 953.1 1637.61 952.712C1637.03 952.325 1636.34 952.117 1635.65 952.117C1634.71 952.117 1633.81 952.489 1633.15 953.151C1632.49 953.813 1632.12 954.711 1632.12 955.647"/><path fill="#83CAD6" d="M1656.82 881.529C1656.82 882.227 1657.03 882.91 1657.42 883.49C1657.8 884.071 1658.35 884.523 1659 884.79C1659.64 885.057 1660.35 885.127 1661.04 884.991C1661.72 884.855 1662.35 884.519 1662.85 884.025C1663.34 883.532 1663.68 882.903 1663.81 882.218C1663.95 881.533 1663.88 880.824 1663.61 880.179C1663.34 879.534 1662.89 878.982 1662.31 878.595C1661.73 878.207 1661.05 878 1660.35 878C1659.41 878 1658.52 878.372 1657.85 879.033C1657.19 879.695 1656.82 880.593 1656.82 881.529"/><path fill="#83CAD6" d="M1656.82 906.236C1656.82 906.934 1657.03 907.616 1657.42 908.197C1657.8 908.777 1658.35 909.229 1659 909.496C1659.64 909.763 1660.35 909.833 1661.04 909.697C1661.72 909.561 1662.35 909.225 1662.85 908.731C1663.34 908.238 1663.68 907.609 1663.81 906.924C1663.95 906.24 1663.88 905.53 1663.61 904.885C1663.34 904.24 1662.89 903.689 1662.31 903.301C1661.73 902.913 1661.05 902.706 1660.35 902.706C1659.41 902.706 1658.52 903.078 1657.85 903.74C1657.19 904.402 1656.82 905.3 1656.82 906.236Z"/><path fill="#83CAD6" d="M1656.82 930.941C1656.82 931.639 1657.03 932.322 1657.42 932.902C1657.8 933.482 1658.35 933.935 1659 934.202C1659.64 934.469 1660.35 934.539 1661.04 934.403C1661.72 934.267 1662.35 933.931 1662.85 933.437C1663.34 932.943 1663.68 932.315 1663.81 931.63C1663.95 930.945 1663.88 930.236 1663.61 929.591C1663.34 928.946 1662.89 928.394 1662.31 928.007C1661.73 927.619 1661.05 927.412 1660.35 927.412C1659.41 927.412 1658.52 927.784 1657.85 928.446C1657.19 929.108 1656.82 930.005 1656.82 930.941Z"/><path fill="#83CAD6" d="M1656.82 955.647C1656.82 956.345 1657.03 957.027 1657.42 957.608C1657.8 958.188 1658.35 958.64 1659 958.908C1659.64 959.175 1660.35 959.244 1661.04 959.108C1661.72 958.972 1662.35 958.636 1662.85 958.142C1663.34 957.649 1663.68 957.02 1663.81 956.336C1663.95 955.651 1663.88 954.941 1663.61 954.296C1663.34 953.651 1662.89 953.1 1662.31 952.712C1661.73 952.325 1661.05 952.117 1660.35 952.117C1659.41 952.117 1658.52 952.489 1657.85 953.151C1657.19 953.813 1656.82 954.711 1656.82 955.647"/><path fill="#83CAD6" d="M1681.53 881.529C1681.53 882.227 1681.74 882.91 1682.13 883.49C1682.51 884.071 1683.07 884.523 1683.71 884.79C1684.35 885.057 1685.06 885.127 1685.75 884.991C1686.43 884.855 1687.06 884.519 1687.56 884.025C1688.05 883.532 1688.39 882.903 1688.52 882.218C1688.66 881.533 1688.59 880.824 1688.32 880.179C1688.05 879.534 1687.6 878.982 1687.02 878.595C1686.44 878.207 1685.76 878 1685.06 878C1684.12 878 1683.23 878.372 1682.56 879.033C1681.9 879.695 1681.53 880.593 1681.53 881.529"/><path fill="#83CAD6" d="M1681.53 906.236C1681.53 906.934 1681.74 907.616 1682.13 908.197C1682.51 908.777 1683.07 909.229 1683.71 909.496C1684.35 909.763 1685.06 909.833 1685.75 909.697C1686.43 909.561 1687.06 909.225 1687.56 908.731C1688.05 908.238 1688.39 907.609 1688.52 906.924C1688.66 906.24 1688.59 905.53 1688.32 904.885C1688.05 904.24 1687.6 903.689 1687.02 903.301C1686.44 902.913 1685.76 902.706 1685.06 902.706C1684.12 902.706 1683.23 903.078 1682.56 903.74C1681.9 904.402 1681.53 905.3 1681.53 906.236Z"/><path fill="#83CAD6" d="M1681.53 930.941C1681.53 931.639 1681.74 932.322 1682.13 932.902C1682.51 933.482 1683.07 933.935 1683.71 934.202C1684.35 934.469 1685.06 934.539 1685.75 934.403C1686.43 934.267 1687.06 933.931 1687.56 933.437C1688.05 932.943 1688.39 932.315 1688.52 931.63C1688.66 930.945 1688.59 930.236 1688.32 929.591C1688.05 928.946 1687.6 928.394 1687.02 928.007C1686.44 927.619 1685.76 927.412 1685.06 927.412C1684.12 927.412 1683.23 927.784 1682.56 928.446C1681.9 929.108 1681.53 930.005 1681.53 930.941Z"/><path fill="#83CAD6" d="M1681.53 955.647C1681.53 956.345 1681.74 957.027 1682.13 957.608C1682.51 958.188 1683.07 958.64 1683.71 958.908C1684.35 959.175 1685.06 959.244 1685.75 959.108C1686.43 958.972 1687.06 958.636 1687.56 958.142C1688.05 957.649 1688.39 957.02 1688.52 956.336C1688.66 955.651 1688.59 954.941 1688.32 954.296C1688.05 953.651 1687.6 953.1 1687.02 952.712C1686.44 952.325 1685.76 952.117 1685.06 952.117C1684.12 952.117 1683.23 952.489 1682.56 953.151C1681.9 953.813 1681.53 954.711 1681.53 955.647"/><path fill="#83CAD6" d="M1706.23 881.529C1706.23 882.227 1706.44 882.91 1706.83 883.49C1707.22 884.071 1707.77 884.523 1708.41 884.79C1709.06 885.057 1709.77 885.127 1710.45 884.991C1711.14 884.855 1711.77 884.519 1712.26 884.025C1712.75 883.532 1713.09 882.903 1713.23 882.218C1713.36 881.533 1713.29 880.824 1713.02 880.179C1712.76 879.534 1712.3 878.982 1711.72 878.595C1711.14 878.207 1710.46 878 1709.76 878C1708.83 878 1707.93 878.372 1707.27 879.033C1706.61 879.695 1706.23 880.593 1706.23 881.529"/><path fill="#83CAD6" d="M1706.23 906.236C1706.23 906.934 1706.44 907.616 1706.83 908.197C1707.22 908.777 1707.77 909.229 1708.41 909.496C1709.06 909.763 1709.77 909.833 1710.45 909.697C1711.14 909.561 1711.77 909.225 1712.26 908.731C1712.75 908.238 1713.09 907.609 1713.23 906.924C1713.36 906.24 1713.29 905.53 1713.02 904.885C1712.76 904.24 1712.3 903.689 1711.72 903.301C1711.14 902.913 1710.46 902.706 1709.76 902.706C1708.83 902.706 1707.93 903.078 1707.27 903.74C1706.61 904.402 1706.23 905.3 1706.23 906.236"/><path fill="#83CAD6" d="M1706.23 930.941C1706.23 931.639 1706.44 932.322 1706.83 932.902C1707.22 933.482 1707.77 933.935 1708.41 934.202C1709.06 934.469 1709.77 934.539 1710.45 934.403C1711.14 934.267 1711.77 933.931 1712.26 933.437C1712.75 932.943 1713.09 932.315 1713.23 931.63C1713.36 930.945 1713.29 930.236 1713.02 929.591C1712.76 928.946 1712.3 928.394 1711.72 928.007C1711.14 927.619 1710.46 927.412 1709.76 927.412C1708.83 927.412 1707.93 927.784 1707.27 928.446C1706.61 929.108 1706.23 930.005 1706.23 930.941"/><path fill="#83CAD6" d="M1706.23 955.647C1706.23 956.345 1706.44 957.027 1706.83 957.608C1707.22 958.188 1707.77 958.64 1708.41 958.908C1709.06 959.175 1709.77 959.244 1710.45 959.108C1711.14 958.972 1711.77 958.636 1712.26 958.142C1712.75 957.649 1713.09 957.02 1713.23 956.336C1713.36 955.651 1713.29 954.941 1713.02 954.296C1712.76 953.651 1712.3 953.1 1711.72 952.712C1711.14 952.325 1710.46 952.117 1709.76 952.117C1708.83 952.117 1707.93 952.489 1707.27 953.151C1706.61 953.813 1706.23 954.711 1706.23 955.647"/><path fill="#83CAD6" d="M1730.94 881.529C1730.94 882.227 1731.14 882.91 1731.53 883.49C1731.92 884.071 1732.47 884.523 1733.12 884.79C1733.76 885.057 1734.47 885.127 1735.16 884.991C1735.84 884.855 1736.47 884.519 1736.96 884.025C1737.46 883.532 1737.79 882.903 1737.93 882.218C1738.06 881.533 1737.99 880.824 1737.73 880.179C1737.46 879.534 1737.01 878.982 1736.43 878.595C1735.85 878.207 1735.17 878 1734.47 878C1733.53 878 1732.63 878.372 1731.97 879.033C1731.31 879.695 1730.94 880.593 1730.94 881.529"/><path fill="#83CAD6" d="M1730.94 906.236C1730.94 906.934 1731.14 907.616 1731.53 908.197C1731.92 908.777 1732.47 909.229 1733.12 909.496C1733.76 909.763 1734.47 909.833 1735.16 909.697C1735.84 909.561 1736.47 909.225 1736.96 908.731C1737.46 908.238 1737.79 907.609 1737.93 906.924C1738.06 906.24 1737.99 905.53 1737.73 904.885C1737.46 904.24 1737.01 903.689 1736.43 903.301C1735.85 902.913 1735.17 902.706 1734.47 902.706C1733.53 902.706 1732.63 903.078 1731.97 903.74C1731.31 904.402 1730.94 905.3 1730.94 906.236Z"/><path fill="#83CAD6" d="M1730.94 930.941C1730.94 931.639 1731.14 932.322 1731.53 932.902C1731.92 933.482 1732.47 933.935 1733.12 934.202C1733.76 934.469 1734.47 934.539 1735.16 934.403C1735.84 934.267 1736.47 933.931 1736.96 933.437C1737.46 932.943 1737.79 932.315 1737.93 931.63C1738.06 930.945 1737.99 930.236 1737.73 929.591C1737.46 928.946 1737.01 928.394 1736.43 928.007C1735.85 927.619 1735.17 927.412 1734.47 927.412C1733.53 927.412 1732.63 927.784 1731.97 928.446C1731.31 929.108 1730.94 930.005 1730.94 930.941Z"/><path fill="#83CAD6" d="M1730.94 955.647C1730.94 956.345 1731.14 957.027 1731.53 957.608C1731.92 958.188 1732.47 958.64 1733.12 958.908C1733.76 959.175 1734.47 959.244 1735.16 959.108C1735.84 958.972 1736.47 958.636 1736.96 958.142C1737.46 957.649 1737.79 957.02 1737.93 956.336C1738.06 955.651 1737.99 954.941 1737.73 954.296C1737.46 953.651 1737.01 953.1 1736.43 952.712C1735.85 952.325 1735.17 952.117 1734.47 952.117C1733.53 952.117 1732.63 952.489 1731.97 953.151C1731.31 953.813 1730.94 954.711 1730.94 955.647"/><path fill="#D1D1D1" d="M1132.51 347.701H1121.2C1119.62 339.111 1116.27 331.006 1111.31 323.825L1119.31 315.824C1120.32 314.815 1120.32 313.185 1119.31 312.176L1106.91 299.781C1105.9 298.771 1104.28 298.771 1103.27 299.781L1095.27 307.781C1088.08 302.819 1079.98 299.465 1071.39 297.888V286.576C1071.39 285.156 1070.23 284 1068.81 284H1051.28C1049.86 284 1048.7 285.156 1048.7 286.576V297.888C1040.11 299.465 1032.01 302.819 1024.82 307.781L1016.82 299.781C1015.81 298.771 1014.19 298.771 1013.18 299.781L1000.78 312.176C999.771 313.185 999.771 314.815 1000.78 315.824L1008.78 323.825C1003.82 331.006 1000.47 339.111 998.888 347.701H987.576C986.156 347.701 985 348.857 985 350.277V367.813C985 369.233 986.156 370.389 987.576 370.389H998.888C1000.47 378.978 1003.82 387.084 1008.78 394.265L1000.78 402.266C999.771 403.275 999.771 404.905 1000.78 405.914L1013.18 418.309C1014.19 419.319 1015.81 419.319 1016.82 418.309L1024.82 410.309C1032.01 415.271 1040.11 418.625 1048.7 420.202V431.514C1048.7 432.934 1049.86 434.09 1051.28 434.09H1068.81C1070.23 434.09 1071.39 432.934 1071.39 431.514V420.202C1079.98 418.625 1088.08 415.271 1095.27 410.309L1103.27 418.309C1104.28 419.319 1105.9 419.319 1106.91 418.309L1119.31 405.914C1120.32 404.905 1120.32 403.275 1119.31 402.266L1111.31 394.265C1116.27 387.084 1119.62 378.978 1121.2 370.389H1132.51C1133.93 370.389 1135.09 369.233 1135.09 367.813V350.277C1135.09 348.857 1133.93 347.701 1132.51 347.701V347.701ZM1060.05 387.284C1044.44 387.284 1031.81 374.636 1031.81 359.045C1031.81 343.454 1044.45 330.806 1060.05 330.806C1075.64 330.806 1088.28 343.454 1088.28 359.045C1088.28 374.636 1075.64 387.284 1060.05 387.284V387.284Z"/><path fill="#fff" d="M1060.03 400.553C1037.14 400.553 1018.52 381.934 1018.52 359.046C1018.52 336.158 1037.14 317.539 1060.03 317.539C1082.92 317.539 1101.54 336.158 1101.54 359.046C1101.54 381.934 1082.92 400.553 1060.03 400.553ZM1060.03 319.484C1038.22 319.484 1020.47 337.231 1020.47 359.057C1020.47 380.883 1038.22 398.629 1060.03 398.629C1081.85 398.629 1099.59 380.883 1099.59 359.057C1099.59 337.231 1081.85 319.484 1060.03 319.484Z"/><path fill="#326CE5" d="M889.072 115.02C887.005 115.124 884.981 115.636 883.116 116.527L801.848 155.358C799.745 156.362 797.897 157.824 796.441 159.634C794.985 161.444 793.96 163.556 793.44 165.814L773.39 253.037C772.927 255.047 772.876 257.128 773.238 259.158C773.6 261.188 774.37 263.125 775.5 264.855C775.774 265.278 776.069 265.687 776.384 266.081L832.634 336.02C834.09 337.83 835.939 339.291 838.042 340.295C840.146 341.299 842.45 341.82 844.784 341.82L934.991 341.799C937.325 341.801 939.629 341.281 941.732 340.279C943.835 339.277 945.684 337.818 947.141 336.01L1003.37 266.061C1004.83 264.25 1005.85 262.137 1006.37 259.879C1006.89 257.62 1006.89 255.275 1006.37 253.017L986.294 165.793C985.774 163.536 984.749 161.423 983.293 159.613C981.837 157.803 979.989 156.342 977.886 155.337L896.607 116.527C894.262 115.407 891.671 114.889 889.072 115.02V115.02Z"/><path fill="#fff" stroke="#fff" stroke-width=".25" d="M889.885 144.704C887.199 144.704 885.021 147.124 885.021 150.109C885.021 150.155 885.03 150.198 885.031 150.244C885.027 150.649 885.008 151.138 885.021 151.491C885.085 153.213 885.46 154.53 885.686 156.116C886.095 159.511 886.438 162.325 886.227 164.941C886.021 165.927 885.294 166.829 884.647 167.456L884.532 169.514C881.613 169.756 878.675 170.198 875.739 170.865C863.109 173.733 852.235 180.239 843.956 189.023C843.418 188.656 842.478 187.982 842.199 187.775C841.331 187.893 840.453 188.161 839.31 187.495C837.133 186.029 835.15 184.007 832.751 181.57C831.652 180.405 830.856 179.295 829.55 178.172C829.253 177.917 828.801 177.571 828.469 177.309C827.448 176.495 826.244 176.07 825.081 176.031C823.585 175.979 822.146 176.564 821.204 177.746C819.529 179.846 820.065 183.056 822.399 184.917C822.423 184.936 822.448 184.951 822.472 184.969C822.793 185.229 823.185 185.562 823.48 185.78C824.866 186.803 826.132 187.327 827.513 188.139C830.422 189.936 832.834 191.426 834.747 193.222C835.494 194.018 835.624 195.421 835.724 196.028L837.283 197.421C828.937 209.981 825.074 225.495 827.357 241.303L825.32 241.895C824.783 242.589 824.024 243.68 823.231 244.005C820.728 244.793 817.911 245.083 814.51 245.439C812.914 245.572 811.536 245.493 809.844 245.814C809.471 245.884 808.952 246.019 808.544 246.115C808.53 246.118 808.517 246.122 808.503 246.125C808.481 246.131 808.451 246.141 808.43 246.146C805.563 246.839 803.721 249.474 804.314 252.071C804.907 254.668 807.708 256.247 810.592 255.625C810.613 255.62 810.643 255.62 810.665 255.615C810.697 255.607 810.726 255.592 810.758 255.584C811.16 255.495 811.664 255.397 812.016 255.303C813.68 254.857 814.885 254.203 816.381 253.63C819.6 252.475 822.265 251.511 824.862 251.135C825.947 251.05 827.09 251.804 827.658 252.123L829.779 251.759C834.658 266.886 844.883 279.113 857.831 286.785L856.948 288.906C857.266 289.729 857.617 290.843 857.38 291.656C856.436 294.104 854.819 296.689 852.977 299.57C852.086 300.901 851.173 301.934 850.368 303.457C850.176 303.821 849.931 304.381 849.745 304.766C848.495 307.441 849.412 310.522 851.813 311.678C854.23 312.842 857.229 311.615 858.527 308.934C858.529 308.931 858.536 308.928 858.538 308.924C858.539 308.921 858.536 308.916 858.538 308.914C858.723 308.534 858.985 308.034 859.141 307.677C859.83 306.098 860.059 304.745 860.544 303.218C861.831 299.985 862.538 296.593 864.31 294.479C864.795 293.9 865.586 293.678 866.406 293.458L867.508 291.463C878.795 295.795 891.43 296.958 904.052 294.092C906.931 293.438 909.711 292.592 912.398 291.577C912.707 292.126 913.283 293.182 913.437 293.448C914.27 293.719 915.18 293.859 915.921 294.955C917.247 297.22 918.153 299.899 919.258 303.135C919.742 304.662 919.982 306.015 920.671 307.594C920.828 307.953 921.089 308.46 921.274 308.841C922.569 311.53 925.578 312.761 927.999 311.595C930.4 310.438 931.318 307.358 930.067 304.683C929.881 304.298 929.626 303.738 929.433 303.374C928.628 301.851 927.716 300.828 926.824 299.497C924.982 296.616 923.455 294.223 922.511 291.774C922.116 290.512 922.577 289.726 922.885 288.906C922.701 288.695 922.307 287.502 922.074 286.941C935.53 278.996 945.455 266.313 950.116 251.665C950.746 251.764 951.84 251.958 952.195 252.029C952.927 251.547 953.599 250.917 954.918 251.021C957.515 251.397 960.181 252.361 963.399 253.515C964.896 254.088 966.101 254.754 967.765 255.199C968.116 255.293 968.62 255.381 969.022 255.469C969.055 255.477 969.083 255.493 969.116 255.501C969.138 255.505 969.168 255.506 969.189 255.511C972.073 256.132 974.874 254.553 975.466 251.956C976.059 249.36 974.218 246.724 971.351 246.032C970.934 245.937 970.342 245.776 969.937 245.699C968.244 245.379 966.867 245.458 965.27 245.325C961.87 244.969 959.053 244.679 956.55 243.891C955.53 243.495 954.804 242.281 954.45 241.781L952.486 241.209C953.505 233.841 953.23 226.172 951.468 218.499C949.689 210.755 946.545 203.672 942.352 197.431C942.856 196.973 943.808 196.13 944.078 195.882C944.156 195.01 944.089 194.095 944.992 193.128C946.905 191.332 949.317 189.842 952.226 188.046C953.607 187.233 954.884 186.71 956.269 185.686C956.583 185.455 957.011 185.088 957.34 184.824C959.673 182.962 960.21 179.752 958.535 177.652C956.86 175.552 953.614 175.354 951.28 177.215C950.948 177.479 950.498 177.822 950.199 178.078C948.894 179.202 948.087 180.311 946.988 181.477C944.589 183.913 942.606 185.946 940.429 187.412C939.486 187.961 938.105 187.771 937.478 187.734L935.628 189.054C925.078 177.991 910.714 170.919 895.248 169.545C895.205 168.897 895.148 167.725 895.134 167.373C894.501 166.767 893.736 166.25 893.544 164.941C893.332 162.325 893.685 159.511 894.095 156.116C894.32 154.53 894.696 153.213 894.76 151.491C894.774 151.1 894.751 150.532 894.749 150.109C894.749 147.124 892.572 144.704 889.885 144.704H889.885ZM883.794 182.433L882.35 207.95L882.246 208.001C882.149 210.284 880.27 212.107 877.964 212.107C877.019 212.107 876.147 211.804 875.438 211.286L875.396 211.307L854.474 196.475C860.904 190.152 869.129 185.479 878.608 183.327C880.34 182.934 882.07 182.642 883.794 182.433ZM895.986 182.433C907.053 183.794 917.287 188.805 925.13 196.485L904.343 211.224L904.27 211.192C902.425 212.54 899.825 212.206 898.387 210.402C897.798 209.664 897.489 208.795 897.452 207.918L897.431 207.908L895.986 182.433ZM846.887 206.006L865.99 223.093L865.969 223.197C867.694 224.696 867.948 227.297 866.51 229.101C865.921 229.839 865.132 230.335 864.286 230.566L864.265 230.649L839.777 237.717C838.531 226.32 841.217 215.242 846.887 206.006ZM932.749 206.016C935.587 210.617 937.736 215.755 939.016 221.326C940.28 226.83 940.597 232.324 940.076 237.634L915.464 230.545L915.443 230.441C913.239 229.839 911.885 227.597 912.398 225.348C912.608 224.427 913.097 223.648 913.759 223.072L913.749 223.02L932.749 206.016H932.749ZM885.967 224.413H893.793L898.657 230.493L896.911 238.081L889.885 241.459L882.838 238.07L881.092 230.483L885.967 224.413ZM911.057 245.221C911.39 245.204 911.721 245.234 912.044 245.294L912.086 245.242L937.415 249.524C933.708 259.939 926.615 268.961 917.137 274.999L907.305 251.249L907.336 251.208C906.433 249.109 907.337 246.648 909.415 245.647C909.947 245.391 910.503 245.249 911.057 245.221H911.057ZM868.516 245.325C870.449 245.352 872.183 246.694 872.632 248.661C872.842 249.583 872.74 250.495 872.393 251.301L872.465 251.395L862.737 274.905C853.641 269.069 846.397 260.33 842.521 249.607L867.632 245.346L867.674 245.398C867.955 245.346 868.24 245.321 868.516 245.325V245.325ZM889.729 255.625C890.403 255.6 891.086 255.739 891.735 256.051C892.586 256.461 893.244 257.107 893.658 257.881H893.752L906.13 280.248C904.524 280.786 902.872 281.247 901.183 281.63C891.716 283.78 882.279 283.128 873.733 280.217L886.081 257.891H886.102C886.843 256.506 888.248 255.68 889.729 255.625Z"/><path fill="#E8E8E8" d="M581.228 587.817H474.57C459.477 587.817 447.242 600.052 447.242 615.145V652.228C447.242 667.321 459.477 679.556 474.57 679.556H581.228C596.321 679.556 608.556 667.321 608.556 652.228V615.145C608.556 600.052 596.321 587.817 581.228 587.817Z"/><path fill="#D1D1D1" d="M591.381 603.816H464.418C461.154 603.816 458.508 606.463 458.508 609.727V609.743C458.508 613.007 461.154 615.653 464.418 615.653H591.381C594.645 615.653 597.292 613.007 597.292 609.743V609.727C597.292 606.463 594.645 603.816 591.381 603.816Z"/><path fill="#F7F7F7" d="M591.381 627.777H464.418C461.154 627.777 458.508 630.424 458.508 633.688V633.704C458.508 636.968 461.154 639.614 464.418 639.614H591.381C594.645 639.614 597.292 636.968 597.292 633.704V633.688C597.292 630.424 594.645 627.777 591.381 627.777Z"/><path fill="#F7F7F7" d="M529.258 651.734H464.339C461.118 651.734 458.508 654.345 458.508 657.565V657.74C458.508 660.96 461.118 663.571 464.339 663.571H529.258C532.479 663.571 535.089 660.96 535.089 657.74V657.565C535.089 654.345 532.479 651.734 529.258 651.734Z"/><path fill="#E8E8E8" d="M1289.93 208.804H1231.92C1219.2 208.804 1208.88 219.118 1208.88 231.842V304.578C1208.88 317.302 1219.2 327.616 1231.92 327.616H1289.93C1302.65 327.616 1312.97 317.302 1312.97 304.578V231.842C1312.97 219.118 1302.65 208.804 1289.93 208.804Z"/><path fill="#fff" d="M1239.12 218.75H1227.46C1224.8 218.75 1222.63 220.912 1222.63 223.58V235.242C1222.63 237.91 1224.8 240.072 1227.46 240.072H1239.12C1241.79 240.072 1243.95 237.91 1243.95 235.242V223.58C1243.95 220.912 1241.79 218.75 1239.12 218.75Z"/><path fill="#fff" d="M1266.77 218.75H1255.11C1252.44 218.75 1250.28 220.912 1250.28 223.58V235.242C1250.28 237.91 1252.44 240.072 1255.11 240.072H1266.77C1269.44 240.072 1271.6 237.91 1271.6 235.242V223.58C1271.6 220.912 1269.44 218.75 1266.77 218.75Z"/><path fill="#fff" d="M1294.4 218.75H1282.74C1280.07 218.75 1277.91 220.912 1277.91 223.58V235.242C1277.91 237.91 1280.07 240.072 1282.74 240.072H1294.4C1297.07 240.072 1299.23 237.91 1299.23 235.242V223.58C1299.23 220.912 1297.07 218.75 1294.4 218.75Z"/><path fill="#D1D1D1" d="M1295.19 258.726H1226.68C1224.44 258.726 1222.63 256.915 1222.63 254.675C1222.63 252.434 1224.44 250.623 1226.68 250.623H1295.19C1297.43 250.623 1299.25 252.434 1299.25 254.675C1299.25 256.915 1297.43 258.726 1295.19 258.726Z"/><path fill="#D1D1D1" d="M1295.19 273.041H1226.68C1224.44 273.041 1222.63 271.229 1222.63 268.989C1222.63 266.749 1224.44 264.938 1226.68 264.938H1295.19C1297.43 264.938 1299.25 266.749 1299.25 268.989C1299.25 271.229 1297.43 273.041 1295.19 273.041Z"/><path fill="#D1D1D1" d="M1295.19 287.341H1226.68C1224.44 287.341 1222.63 285.53 1222.63 283.29C1222.63 281.05 1224.44 279.238 1226.68 279.238H1295.19C1297.43 279.238 1299.25 281.05 1299.25 283.29C1299.25 285.53 1297.43 287.341 1295.19 287.341Z"/><path fill="#D1D1D1" d="M1295.19 301.64H1226.68C1224.44 301.64 1222.63 299.829 1222.63 297.589C1222.63 295.348 1224.44 293.537 1226.68 293.537H1295.19C1297.43 293.537 1299.25 295.348 1299.25 297.589C1299.25 299.829 1297.43 301.64 1295.19 301.64Z"/><path fill="#D1D1D1" d="M1295.19 315.939H1226.68C1224.44 315.939 1222.63 314.128 1222.63 311.887C1222.63 309.647 1224.44 307.836 1226.68 307.836H1295.19C1297.43 307.836 1299.25 309.647 1299.25 311.887C1299.25 314.128 1297.43 315.939 1295.19 315.939Z"/><path fill="#02A6EA" d="M1166.14 675.568H789.113C785.077 675.568 781.805 678.841 781.805 682.877V682.893C781.805 686.929 785.077 690.201 789.113 690.201H1166.14C1170.18 690.201 1173.45 686.929 1173.45 682.893V682.877C1173.45 678.841 1170.18 675.568 1166.14 675.568Z"/><path fill="#02A6EA" d="M806.654 907.045H799.234L845.66 690.202H853.096L806.654 907.045Z"/><path fill="#02A6EA" d="M1148.6 907.045H1156.02L1109.59 690.202H1102.16L1148.6 907.045Z"/><path fill="#002859" d="M1229.15 585.688L1146.27 846.017L1193.93 853.803L1276.57 645.015C1276.57 645.015 1315.9 629.159 1314.36 585.688H1229.15V585.688Z"/><path fill="#02A6EA" d="M1151.7 868.77L1146.32 876.555L1111.59 888.757C1105.69 890.822 1100.62 895.891 1098.81 901.515H1173.39L1179.72 868.849L1151.7 868.785V868.77Z"/><path fill="#002859" d="M1142.12 878.016L1142.99 883.1C1143.18 884.212 1142.26 885.579 1140.94 886.071C1139.75 886.532 1138.67 886.103 1138.45 885.102L1137.29 879.7L1142.1 878L1142.12 878.016Z"/><path fill="#002859" d="M1133.63 881.021L1134.51 886.105C1134.7 887.217 1133.78 888.584 1132.46 889.076C1131.27 889.537 1130.19 889.108 1129.96 888.107L1128.8 882.705L1133.62 881.005L1133.63 881.021Z"/><path fill="#002859" d="M1124.05 884.371L1124.92 889.456C1125.11 890.568 1124.19 891.934 1122.87 892.427C1121.68 892.887 1120.6 892.458 1120.38 891.457L1119.22 886.055L1124.03 884.355L1124.05 884.371Z"/><path fill="#002859" d="M1173.37 901.5L1171.6 907.045H1097.02L1098.8 901.5H1173.37Z"/><path fill="#FFD1C1" d="M1179.71 868.834L1185.59 852.437L1156.77 847.734L1151.72 868.771L1179.71 868.834Z"/><path fill="#02A6EA" d="M1149.66 846.575L1185.59 862.797L1191.78 842.364L1149.66 846.575Z"/><path fill="#002859" d="M1300.04 611.046L1338.64 822.884L1296.71 836.341L1240.81 634.211L1300.04 611.046Z"/><path fill="#02A6EA" d="M1309.5 850.545L1307.54 859.808L1280.26 884.53C1275.62 888.725 1272.92 895.35 1273.45 901.245L1342.18 872.296L1335.33 839.726L1309.5 850.545V850.545Z"/><path fill="#002859" d="M1304.27 862.794L1307.05 867.147C1307.67 868.101 1307.34 869.721 1306.32 870.674C1305.4 871.564 1304.24 871.596 1303.65 870.754L1300.48 866.226L1304.26 862.794H1304.27Z"/><path fill="#002859" d="M1297.62 868.834L1300.4 873.187C1301.02 874.141 1300.68 875.761 1299.67 876.715C1298.75 877.604 1297.59 877.636 1297 876.794L1293.82 872.266L1297.6 868.834H1297.62Z"/><path fill="#002859" d="M1290.08 875.665L1292.86 880.018C1293.48 880.972 1293.14 882.592 1292.13 883.546C1291.21 884.435 1290.05 884.467 1289.46 883.625L1286.28 879.097L1290.06 875.665H1290.08Z"/><path fill="#002859" d="M1342.19 872.297L1342.69 878.096L1273.96 907.044L1273.45 901.245L1342.19 872.297Z"/><path fill="#FFD1C1" d="M1335.31 839.741L1334.47 824.218L1305.22 833.608L1309.48 850.545L1335.31 839.741Z"/><path fill="#02A6EA" d="M1296.96 835.69L1339.24 834.928L1335.14 817.546L1296.96 835.69Z"/><path fill="#02A6EA" d="M1256.44 691.6C1256.31 691.6 1256.18 691.568 1256.06 691.521C1255.58 691.314 1255.37 690.758 1255.58 690.297L1275.85 644.349L1276.16 644.206C1276.35 644.11 1295.21 634.736 1301.67 623.916C1301.94 623.471 1302.51 623.328 1302.96 623.599C1303.4 623.869 1303.55 624.441 1303.28 624.885C1296.91 635.546 1279.87 644.428 1277.28 645.747L1257.28 691.076C1257.12 691.425 1256.79 691.632 1256.42 691.632L1256.44 691.6Z"/><path fill="#FFD1C1" d="M1238.59 514.159C1234.11 518.004 1127.23 526.552 1127.23 526.552C1127.23 526.552 1113.96 537.086 1111.72 533.797C1110.1 531.414 1109.08 530.858 1106.78 525.52C1106.08 523.883 1104.6 518.259 1104.86 516.495C1105.83 509.79 1110.4 508.567 1110.4 508.567C1113.72 507.2 1125.64 508.281 1125.64 508.281L1223.49 483.845L1238.59 514.175V514.159Z"/><path fill="#02A6EA" d="M1163.02 523.501C1163.67 523.437 1199.95 507.882 1199.95 507.882C1199.95 507.882 1201.84 491.184 1208.37 483.844L1219.33 481.969L1218.06 526.297C1218.06 526.297 1163.6 527.536 1163.02 523.501"/><path fill="#02A6EA" d="M1116.24 519.909C1113.43 517.018 1110.74 514.015 1108.06 510.996C1104.21 512.045 1101.53 515.826 1100.97 519.766C1100.42 523.707 1101.72 527.726 1103.74 531.158C1104.98 533.271 1106.6 535.289 1108.84 536.29C1111.46 537.45 1114.51 537.005 1117.23 536.068C1120.55 534.94 1123.63 533.113 1126.23 530.761C1127.09 529.983 1128.03 528.839 1127.87 527.599C1127.74 526.519 1126.66 526.567 1125.82 526.376C1123.39 525.82 1121.23 524.422 1119.34 522.817C1118.26 521.911 1117.24 520.91 1116.26 519.894L1116.24 519.909Z"/><path fill="#002859" d="M1244.77 375.201C1244.77 375.201 1233.36 373.883 1227.59 384.909C1223.7 392.361 1230.69 407.772 1234.84 418.116C1237.86 425.647 1246.04 429.905 1253.86 427.712C1254.43 427.553 1254.98 427.363 1255.49 427.14L1244.77 375.201Z"/><path fill="#FFD1C1" d="M1267.37 404.084C1269.74 404.529 1272.17 402.098 1272.82 398.666C1273.47 395.235 1272.07 392.089 1269.71 391.644C1268.29 391.374 1266.85 392.152 1265.77 393.55C1263.37 383.652 1257.23 376.598 1250.04 376.598C1240.76 376.598 1233.23 388.307 1233.23 402.75C1233.23 417.192 1240.76 428.902 1250.04 428.902V448.349L1271.49 448.413L1268.21 430.491C1267.31 425.533 1266.85 420.497 1266.85 415.444V403.925C1267.02 403.989 1267.18 404.037 1267.37 404.084V404.084Z"/><path fill="#fff" d="M1238.83 417.669C1238.83 417.669 1242.74 418.828 1247.12 413.331C1247.12 413.331 1247.44 420.37 1243.77 420.703C1240.08 421.021 1238.83 417.669 1238.83 417.669V417.669Z"/><path fill="#FF9C6A" d="M1250.04 428.888C1250.04 428.888 1256.74 427.871 1260.94 418.974C1260.94 418.974 1259.57 431.414 1250.04 432.209V428.904V428.888Z"/><path fill="#002859" d="M1243.06 378.967C1243.06 378.967 1240.11 397.254 1265.77 393.552C1265.77 393.552 1269.48 389.358 1272.15 393.568C1274.82 397.794 1271.01 404.038 1266.83 403.927C1266.83 403.927 1265.78 424.121 1268.61 432.764C1268.61 432.764 1270.74 425.837 1275.98 417.893C1283.08 407.137 1283.16 393.06 1275.55 382.653C1272.25 378.125 1267.56 374.153 1260.94 371.881C1237.72 363.905 1243.06 378.967 1243.06 378.967V378.967Z"/><path fill="#02A6EA" d="M1317.03 585.688L1298.71 467.972C1295.33 450.527 1279.5 438.309 1261.77 439.469C1251.81 440.12 1242.93 444.902 1236.89 452.163L1236.86 452.211C1236.09 453.133 1235.4 454.086 1234.73 455.071L1215.93 480.349C1206.76 492.678 1206.94 509.599 1216.35 521.738L1233 530.318L1229.18 585.672H1317.04L1317.03 585.688Z"/><path fill="#02A6EA" d="M1272.67 477.046C1272.67 477.046 1269.64 535.817 1246.22 547.32L1225.77 553.278L1224.07 531.558L1272.67 477.046Z"/><path fill="#002859" d="M1297.7 386.816C1305.1 388.484 1311.55 393.902 1314.48 400.909C1316.75 406.358 1316.91 412.412 1316.83 418.306C1316.6 433.972 1314.94 450.178 1320.43 464.843C1317.57 465.161 1314.7 464.509 1311.89 463.826C1303.39 461.761 1293.98 458.678 1290.09 450.861C1287.32 445.348 1288.07 438.723 1289.64 432.765C1291.22 426.807 1293.6 420.96 1293.93 414.795C1294.28 408.63 1292.06 401.799 1286.62 398.859C1284.46 397.683 1274.37 395.491 1277.93 391.296C1279.27 389.708 1281.78 388.691 1283.65 387.96C1285.75 387.134 1287.96 386.593 1290.2 386.371C1292.69 386.117 1295.22 386.26 1297.67 386.8L1297.7 386.816Z"/><path fill="#FFC967" d="M1279.48 389.979L1281.13 397.16C1281.13 397.16 1282.43 399.448 1285.24 398.272C1285.24 398.272 1283.45 388.866 1283.07 388.199C1282.69 387.548 1279.46 388.024 1279.48 389.979Z"/><path fill="#002859" d="M1101.9 482.703L1101.57 482.804C1100.1 483.25 1099.27 484.802 1099.71 486.271L1124.44 567.928C1124.89 569.398 1126.44 570.229 1127.91 569.783L1128.25 569.682C1129.71 569.237 1130.55 567.685 1130.1 566.215L1105.37 484.558C1104.92 483.089 1103.37 482.258 1101.9 482.703Z"/><path fill="#FFD1C1" d="M1260.28 460.521C1259.34 460.219 1258.34 459.981 1257.33 459.806C1246.93 458.09 1236.78 464.096 1232.86 473.867L1218.22 510.267L1132.7 540.868C1132.7 540.868 1120.7 538.755 1117.53 540.423C1117.53 540.423 1111.81 542.568 1112.89 551.863C1112.89 551.863 1114.78 558.727 1117.33 561.777C1119.88 564.844 1136 556.709 1136 556.709C1136 556.709 1200.43 550.878 1236.94 539.915C1236.94 539.915 1241.56 537.945 1245.65 533.687C1246.49 532.813 1247.32 531.828 1248.08 530.747C1249.67 528.475 1270.62 485.879 1270.62 485.879C1275.76 476.044 1270.83 463.937 1260.28 460.489V460.521Z"/><path fill="#02A6EA" d="M1178.88 552.658C1198.17 551.323 1231.23 548.321 1240.48 543.077C1253.77 535.515 1275.46 490.471 1275.46 490.471C1275.46 490.471 1296.05 464.812 1268.06 467.322C1268.06 467.322 1247.16 524.377 1240.81 530.113C1234.45 535.864 1164.61 553.516 1164.61 553.516C1164.61 553.516 1170.42 553.246 1178.88 552.658Z"/><path fill="#FFD1C1" d="M931.953 398.589C931.953 398.589 940.501 371.007 942.964 371.531C945.443 372.055 942.313 385.703 945.697 385.052C949.081 384.4 954.149 357.343 956.104 358.9C958.058 360.457 969.64 375.296 967.94 383.622C966.256 391.947 945.109 408.678 945.109 408.678L931.938 398.573L931.953 398.589Z"/><path fill="#FFD1C1" d="M722.751 374.36C722.751 374.36 739.147 350.591 737.209 348.97C735.271 347.35 726.469 358.249 724.896 355.183C723.323 352.116 741.451 331.414 739.004 330.842C736.574 330.27 717.762 330.349 712.249 336.816C706.751 343.298 706.672 370.245 706.672 370.245L722.751 374.344V374.36Z"/><path fill="#FFD1C1" d="M756.005 335.242C744.931 337.482 738.782 353.259 742.277 370.466L745.344 385.608C746.567 391.63 747.234 397.747 747.346 403.879L747.759 426.028L773.307 420.769L768.62 397.572C779.694 395.332 785.843 379.555 782.347 362.348C778.868 345.125 767.063 332.986 756.005 335.226V335.242Z"/><path fill="#FF9C6A" d="M780.121 387.483C780.121 387.483 769.475 392.901 766.711 390.026L768.618 397.588C768.618 397.588 779.453 396.158 780.121 387.483"/><path fill="#002859" d="M826.081 552.724L799.246 856.189H733.977L768.105 587.789L720.186 856.189H649.562L725.143 552.724H826.081Z"/><path fill="#02A6EA" d="M681.324 856.73C681.213 856.73 681.086 856.698 680.99 856.619C680.768 856.444 680.72 856.11 680.895 855.872C683.564 851.709 729.021 651.581 752.694 546.305C752.758 546.019 753.044 545.829 753.33 545.892C753.616 545.956 753.806 546.242 753.743 546.528C750.931 559.016 684.931 852.519 681.753 856.523C681.642 856.65 681.483 856.73 681.34 856.73H681.324Z"/><path fill="#02A6EA" d="M772.525 856.729H772.478C772.176 856.698 771.969 856.443 771.985 856.157L797.105 543.604C797.12 543.302 797.391 543.095 797.677 543.111C797.978 543.143 798.185 543.397 798.169 543.683L773.05 856.237C773.034 856.523 772.796 856.729 772.51 856.729H772.525Z"/><path fill="#02A6EA" d="M788.604 856.188L787.238 866.468L826.085 882.706C832.678 885.455 836.364 892.191 835.363 899.675H736.109L741.893 856.188H788.604V856.188Z"/><path fill="#002859" d="M769.28 880.642C768.676 885.202 764.482 888.904 759.922 888.904C755.362 888.904 752.152 885.202 752.772 880.642C753.376 876.082 757.57 872.38 762.13 872.38C766.69 872.38 769.899 876.082 769.28 880.642Z"/><path fill="#002859" d="M791.924 868.424L787.666 875.192C786.729 876.686 787.142 878.481 788.588 879.148C789.891 879.752 791.591 879.196 792.496 877.861L797.326 870.68L791.94 868.424H791.924Z"/><path fill="#002859" d="M801.409 872.41L797.151 879.179C796.213 880.672 796.626 882.467 798.072 883.135C799.375 883.738 801.075 883.182 801.981 881.848L806.811 874.666L801.425 872.41H801.409Z"/><path fill="#002859" d="M812.135 876.877L807.877 883.645C806.94 885.139 807.353 886.934 808.799 887.602C810.102 888.205 811.802 887.649 812.707 886.315L817.537 879.133L812.151 876.877H812.135Z"/><path fill="#002859" d="M736.126 899.674L735.141 907.046H834.395L835.38 899.674H736.126Z"/><path fill="#02A6EA" d="M665.24 856.188L663.873 866.468L620.705 882.706C613.381 885.455 607.899 892.191 606.914 899.675H706.168L711.951 856.188H665.24V856.188Z"/><path fill="#002859" d="M678.073 880.642C677.47 885.202 680.663 888.904 685.223 888.904C689.783 888.904 693.977 885.202 694.581 880.642C695.185 876.082 691.991 872.38 687.431 872.38C682.872 872.38 678.677 876.082 678.073 880.642Z"/><path fill="#002859" d="M658.677 868.424L661.124 875.192C661.664 876.686 660.759 878.481 659.154 879.148C657.676 879.752 656.135 879.196 655.595 877.861L652.688 870.68L658.677 868.424V868.424Z"/><path fill="#002859" d="M648.146 872.41L650.593 879.179C651.133 880.672 650.227 882.467 648.623 883.135C647.145 883.738 645.604 883.182 645.064 881.848L642.156 874.666L648.146 872.41V872.41Z"/><path fill="#002859" d="M636.224 876.877L638.671 883.645C639.211 885.139 638.306 886.934 636.701 887.602C635.223 888.205 633.682 887.649 633.142 886.315L630.234 879.133L636.224 876.877V876.877Z"/><path fill="#002859" d="M706.168 899.674L705.183 907.046H605.945L606.914 899.674H706.168Z"/><path fill="#02A6EA" d="M926.14 390.294L871.293 464.365L871.135 464.572L823.502 425.82C809.361 414.317 792.122 407.93 775.249 407.93H731.111C729.427 407.93 727.759 407.993 726.107 408.121L736.386 373.516L702.671 364.126L658.296 467.193C654.371 476.329 654.737 486.736 659.296 495.569C663.777 504.244 671.848 510.52 681.365 512.697C689.564 514.572 698.127 511.68 703.513 505.214L708.058 499.78L710.187 561.76H839.199L823.216 496.539L837.499 509.011L837.451 509.075L841.423 512.411L845.253 515.748L845.3 515.684L847.954 517.924C855.421 524.216 865.288 526.901 874.916 525.265C884.719 523.596 893.267 517.638 898.192 509.011L953.896 411.6L926.124 390.294H926.14Z"/><path fill="#02A6EA" d="M726.117 408.105C726.117 408.105 698.884 411.966 684.553 430.142L660.133 462.935L679.612 417.685C679.612 417.685 697.756 397.237 726.117 408.105V408.105Z"/><path fill="#02A6EA" d="M823.234 496.539L797.321 473.057C797.321 473.057 792.395 509.727 839.218 561.777L823.234 496.555V496.539Z"/><path fill="#002859" d="M771.699 341.184C771.699 341.184 778.769 358.455 776.625 364.111C776.625 364.111 772.97 357.788 769.046 361.537C765.121 365.303 770.349 371.181 775.592 371.356C775.592 371.356 763.739 388.198 762.309 388.849C760.879 389.5 746.31 391.296 746.31 391.296C746.31 391.296 724.575 364.476 727.355 350.082C730.136 335.687 744.355 324.406 759.735 323.914C775.099 323.421 791.782 334.956 791.782 334.956C791.782 334.956 784.664 343.552 771.699 341.168V341.184Z"/><path fill="#02A6EA" d="M708.059 499.781L706.645 468.497C706.645 468.497 692.394 513.207 681.367 512.698C681.367 512.698 696.954 518.736 708.059 499.781V499.781Z"/><path fill="#002859" d="M999.663 629.891H959.656V669.897H999.663V629.891Z"/><path fill="#02A6EA" d="M999.663 637.359H959.656V643.953H999.663V637.359Z"/><path fill="#002859" d="M1068.06 620.532V537.04C1068.06 527.747 1060.53 520.214 1051.24 520.214H908.084C898.791 520.214 891.258 527.747 891.258 537.04V620.532C891.258 629.825 898.791 637.358 908.084 637.358H1051.24C1060.53 637.358 1068.06 629.825 1068.06 620.532Z"/><path fill="#fff" d="M1053.66 525.347H905.646C900.53 525.347 896.383 529.494 896.383 534.61V622.964C896.383 628.08 900.53 632.227 905.646 632.227H1053.66C1058.78 632.227 1062.92 628.08 1062.92 622.964V534.61C1062.92 529.494 1058.78 525.347 1053.66 525.347Z"/><path fill="#02A6EA" d="M955.479 667.641H1001.3C1005.78 667.641 1009.42 671.279 1009.42 675.759H947.344C947.344 671.279 950.982 667.641 955.463 667.641H955.479Z"/><path fill="#02A6EA" d="M947.027 546.749H931.742V610.826H947.027V546.749Z"/><path fill="#E8E8E8" d="M973.855 563.939H958.57V610.826H973.855V563.939Z"/><path fill="#E8E8E8" d="M1000.71 571.71H985.422V610.827H1000.71V571.71Z"/><path fill="#E8E8E8" d="M1027.54 590.188H1012.26V610.826H1027.54V590.188Z"/><path fill="#002859" d="M1079.73 658.998C1087.76 658.998 1094.27 665.512 1094.27 673.536V675.76H1065.18V673.536C1065.18 665.512 1071.69 658.998 1079.72 658.998H1079.73Z"/><path fill="#E8E8E8" d="M702.742 166.73H529.83C517.536 166.73 507.57 176.696 507.57 188.99V275.406C507.57 287.7 517.536 297.666 529.83 297.666H702.742C715.035 297.666 725.001 287.7 725.001 275.406V188.99C725.001 176.696 715.035 166.73 702.742 166.73Z"/><mask id="mask0_718_3517" style="mask-type:alpha" width="218" height="132" x="507" y="166" maskUnits="userSpaceOnUse"><path fill="#E8E8E8" d="M702.742 166.73H529.83C517.536 166.73 507.57 176.696 507.57 188.99V275.406C507.57 287.7 517.536 297.666 529.83 297.666H702.742C715.035 297.666 725.001 287.7 725.001 275.406V188.99C725.001 176.696 715.035 166.73 702.742 166.73Z"/></mask><g mask="url(#mask0_718_3517)"><path fill="#02A6EA" d="M497.407 298.206C499.583 291.136 502.538 284.304 506.177 277.853C511.674 268.129 518.919 259.152 528.436 253.306C537.953 247.475 549.949 245.075 560.546 248.603C568.093 251.113 574.385 256.324 581.122 260.551C587.858 264.777 595.866 268.145 603.619 266.35C610.451 264.761 615.742 259.47 620.461 254.275C628.818 245.075 636.746 235.32 646.677 227.853C656.607 220.369 669.047 215.285 681.345 217.033C692.864 218.669 702.714 225.994 711.326 233.811C720.033 241.723 728.024 250.414 735.19 259.74V324.406H499.488L497.391 298.206H497.407Z"/><path fill="#002859" d="M733.235 160.868H497.914V194.662H733.235V160.868Z"/></g><path fill="#02A6EA" d="M531.194 178.474C531.194 181.191 528.986 183.4 526.269 183.4C523.552 183.4 521.344 181.191 521.344 178.474C521.344 175.757 523.552 173.549 526.269 173.549C528.986 173.549 531.194 175.757 531.194 178.474Z"/><path fill="#fff" d="M550.499 178.474C550.499 181.191 548.291 183.4 545.574 183.4C542.857 183.4 540.648 181.191 540.648 178.474C540.648 175.757 542.857 173.549 545.574 173.549C548.291 173.549 550.499 175.757 550.499 178.474Z"/><path fill="#fff" d="M569.819 178.474C569.819 181.191 567.611 183.4 564.894 183.4C562.177 183.4 559.969 181.191 559.969 178.474C559.969 175.757 562.177 173.549 564.894 173.549C567.611 173.549 569.819 175.757 569.819 178.474Z"/><path fill="#E8E8E8" d="M575.074 432.274H499.891C487.387 432.274 477.25 442.411 477.25 454.915V480.94C477.25 493.444 487.387 503.581 499.891 503.581H575.074C587.578 503.581 597.715 493.444 597.715 480.94V454.915C597.715 442.411 587.578 432.274 575.074 432.274Z"/><path fill="#D1D1D1" d="M535.045 445.829H492.162C489.881 445.829 488.031 447.679 488.031 449.96C488.031 452.241 489.881 454.091 492.162 454.091H535.045C537.326 454.091 539.176 452.241 539.176 449.96C539.176 447.679 537.326 445.829 535.045 445.829Z"/><path fill="#F7F7F7" d="M535.045 470.902H492.162C489.881 470.902 488.031 472.752 488.031 475.033C488.031 477.315 489.881 479.164 492.162 479.164H535.045C537.326 479.164 539.176 477.315 539.176 475.033C539.176 472.752 537.326 470.902 535.045 470.902Z"/><path fill="#F7F7F7" d="M585.201 470.902H547.8C545.606 470.902 543.828 472.681 543.828 474.874V475.192C543.828 477.386 545.606 479.164 547.8 479.164H585.201C587.395 479.164 589.173 477.386 589.173 475.192V474.874C589.173 472.681 587.395 470.902 585.201 470.902Z"/><path fill="#F7F7F7" d="M564.562 445.829H546.704C545.116 445.829 543.828 447.117 543.828 448.705V451.215C543.828 452.803 545.116 454.091 546.704 454.091H564.562C566.151 454.091 567.438 452.803 567.438 451.215V448.705C567.438 447.117 566.151 445.829 564.562 445.829Z"/><path fill="#F7F7F7" d="M511.816 458.284H491.098C489.404 458.284 488.031 459.657 488.031 461.351V463.48C488.031 465.173 489.404 466.546 491.098 466.546H511.816C513.51 466.546 514.882 465.173 514.882 463.48V461.351C514.882 459.657 513.51 458.284 511.816 458.284Z"/><path fill="#F7F7F7" d="M563.373 458.284H524.192C521.946 458.284 520.125 460.105 520.125 462.352V462.479C520.125 464.725 521.946 466.546 524.192 466.546H563.373C565.619 466.546 567.44 464.725 567.44 462.479V462.352C567.44 460.105 565.619 458.284 563.373 458.284Z"/><path fill="#F7F7F7" d="M586.662 458.284H573.729C572.343 458.284 571.219 459.408 571.219 460.795V464.036C571.219 465.422 572.343 466.546 573.729 466.546H586.662C588.049 466.546 589.172 465.422 589.172 464.036V460.795C589.172 459.408 588.049 458.284 586.662 458.284Z"/><path fill="#F7F7F7" d="M586.662 445.829H573.729C572.343 445.829 571.219 446.953 571.219 448.339V451.581C571.219 452.967 572.343 454.091 573.729 454.091H586.662C588.049 454.091 589.172 452.967 589.172 451.581V448.339C589.172 446.953 588.049 445.829 586.662 445.829Z"/><path fill="#D1D1D1" d="M540.531 491.778H553.162C554.531 491.778 555.641 490.669 555.641 489.3V485.995C555.641 484.626 554.531 483.516 553.162 483.516H540.531C539.162 483.516 538.052 484.626 538.052 485.995V489.3C538.052 490.669 539.162 491.778 540.531 491.778Z"/><path fill="#D1D1D1" d="M562.281 491.778H574.912C576.281 491.778 577.391 490.669 577.391 489.3V485.995C577.391 484.626 576.281 483.516 574.912 483.516H562.281C560.912 483.516 559.802 484.626 559.802 485.995V489.3C559.802 490.669 560.912 491.778 562.281 491.778Z"/><path fill="#D1D1D1" d="M581.553 487.949C581.553 490.064 583.264 491.778 585.374 491.778C587.485 491.778 589.195 490.064 589.195 487.949V487.345C589.195 485.231 587.485 483.516 585.374 483.516C583.264 483.516 581.553 485.231 581.553 487.345V487.949Z"/><path fill="#F7F7F7" d="M512.641 491.778H530.499C532.087 491.778 533.375 490.491 533.375 488.903V486.392C533.375 484.804 532.087 483.516 530.499 483.516H512.641C511.053 483.516 509.765 484.804 509.765 486.392V488.903C509.765 490.491 511.053 491.778 512.641 491.778Z"/><path fill="#F7F7F7" d="M490.564 491.778H503.497C504.884 491.778 506.008 490.654 506.008 489.268V486.027C506.008 484.64 504.884 483.516 503.497 483.516H490.564C489.178 483.516 488.054 484.64 488.054 486.027V489.268C488.054 490.654 489.178 491.778 490.564 491.778Z"/><path fill="#002859" d="M1441.15 905.646H436V908.331H1441.15V905.646Z"/></g><defs><clipPath id="clip0_718_3517"><rect width="1798" height="1019" fill="#fff"/></clipPath></defs></svg>